<svg version="1.1" xmlns="http://www.w3.org/2000/svg" xmlns:xlink="http://www.w3.org/1999/xlink" width="48" height="48"><defs><linearGradient x1="7.04513" y1="6.92645" x2="87.5178" y2="87.63648" gradientUnits="userSpaceOnUse" id="color-1"><stop offset="0" stop-color="#000000" stop-opacity="0.19"></stop><stop offset="1" stop-color="#000000" stop-opacity="0"></stop></linearGradient><filter id="dropshadow-base"><feColorMatrix type="matrix" values="0 0 0 0 0  0 0 0 0 0  0 0 0 0 0  0 0 0 .8 0"></feColorMatrix> <feOffset dx="0" dy="1"></feOffset> <feGaussianBlur stdDeviation="1"></feGaussianBlur> <feComposite in="SourceGraphic"></feComposite></filter><filter id="dropshadow-banner" x="-10%" y="-10%" width="120%" height="130%"><feColorMatrix type="matrix" values="0 0 0 0 0  0 0 0 0 0  0 0 0 0 0  0 0 0 .4 0"></feColorMatrix> <feOffset dx="0" dy="1"></feOffset> <feGaussianBlur stdDeviation="0.5"></feGaussianBlur> <feComposite in="SourceGraphic"></feComposite></filter></defs><g fill="none" fill-rule="nonzero" stroke="none" stroke-width="none" stroke-linecap="butt" stroke-linejoin="miter" stroke-miterlimit="10" stroke-dasharray="" stroke-dashoffset="0" font-family="none" font-weight="none" font-size="none" text-anchor="none" style="mix-blend-mode: normal"><path d="M30.9854,9.52902l2.1787,-2.59409l7.79076,6.5361l4.08692,4.08692c0.62301,2.03746 0.95821,4.20061 0.95821,6.44205c0,0.17957 -0.00215,0.35864 -0.00643,0.53719zM9.22383,16.05663l-2.1787,-2.59409l7.79076,-6.5361l4.3875,4.3875c1.49953,-0.49266 3.10225,-0.75916 4.76812,-0.75916c4.21858,0 8.0364,1.70906 10.79914,4.47181l11.10719,11.10719c-1.07305,11.14903 -10.46744,19.86622 -21.89785,19.86622c-0.48644,0 -0.96919,-0.01579 -1.44777,-0.04688l-9.34305,-9.34305c-2.76202,-2.76202 -4.46856,-6.57944 -4.46856,-10.7959c0,-2.92879 0.82337,-5.66506 2.25193,-7.98882z" fill="url(#color-1)" stroke-width="1"></path><path d="M40.95487,13.47103l-7.79076,-6.5361l-2.1787,2.59409l7.79076,6.5361zM17.0146,9.52054l-2.1787,-2.59409l-7.79076,6.5361l2.1787,2.59409zM24.84774,17.33674h-2.54323v10.17292l8.04508,4.84061l1.28009,-2.09393l-6.78195,-4.0183zM23.99152,10.55479c-8.43505,0 -15.2509,6.83281 -15.2509,15.25938c0,8.42657 6.81586,15.25938 15.2509,15.25938c8.43505,0 15.26786,-6.83281 15.26786,-15.25938c0,-8.42657 -6.83281,-15.25938 -15.26786,-15.25938zM24,37.68258c-6.55306,0 -11.86841,-5.31535 -11.86841,-11.86841c0,-6.55306 5.31535,-11.86841 11.86841,-11.86841c6.55306,0 11.86841,5.31535 11.86841,11.86841c0,6.55306 -5.30687,11.86841 -11.86841,11.86841z" fill="none" stroke-width="0"></path><path d="M2,24c0,-12.15026 9.84974,-22 22,-22c12.15026,0 22,9.84974 22,22c0,12.15026 -9.84974,22 -22,22c-12.15026,0 -22,-9.84974 -22,-22z" id="base 1 9" fill="#2da86d" stroke-width="1"></path><path d="M38.77617,16.06512l-7.79076,-6.5361l2.1787,-2.59409l7.79076,6.5361zM9.22383,16.05665l-2.1787,-2.59409l7.79076,-6.5361l2.1787,2.59409zM24.84774,26.23804l6.78195,4.0183l-1.28009,2.09393l-8.04508,-4.84061v-10.17292h2.54323zM39.25938,25.81417c0,8.42657 -6.83281,15.25938 -15.26786,15.25938c-8.43505,0 -15.2509,-6.83281 -15.2509,-15.25938c0,-8.42657 6.81586,-15.25938 15.2509,-15.25938c8.43505,0 15.26786,6.83281 15.26786,15.25938zM35.86841,25.81417c0,-6.55306 -5.31535,-11.86841 -11.86841,-11.86841c-6.55306,0 -11.86841,5.31535 -11.86841,11.86841c0,6.55306 5.31535,11.86841 11.86841,11.86841c6.56153,0 11.86841,-5.31535 11.86841,-11.86841z" fill="#ffffff" stroke-width="0"></path><path d="M2,24c0,-12.15026 9.84974,-22 22,-22c12.15026,0 22,9.84974 22,22c0,12.15026 -9.84974,22 -22,22c-12.15026,0 -22,-9.84974 -22,-22z" id="base 1 5 1" fill="none" stroke-width="1"></path><path d="M2,24c0,-12.15026 9.84974,-22 22,-22c12.15026,0 22,9.84974 22,22c0,12.15026 -9.84974,22 -22,22c-12.15026,0 -22,-9.84974 -22,-22z" id="base 1 1 1" fill="none" stroke-width="1"></path><g fill="#000000" stroke-width="1" font-family="Roboto, sans-serif" font-weight="400" font-size="14" text-anchor="start"></g><rect x="2" y="2" width="44" height="22" fill="none" stroke-width="1"></rect><path d="M2,24v-22h44v22z" fill="none" stroke-width="1"></path><path d="M2,24v-22h44v22z" fill="none" stroke-width="1"></path><path d="M2,24v-22h44v22z" fill="none" stroke-width="1"></path><path d="M2,24v-22h44v22z" fill="none" stroke-width="1"></path><g fill="#000000" stroke-width="1" font-family="Roboto, sans-serif" font-weight="400" font-size="14" text-anchor="start"></g><rect x="2" y="2" width="44" height="22" fill="none" stroke-width="1"></rect><path d="M2,24v-22h44v22z" fill="none" stroke-width="1"></path><path d="M2,24v-22h44v22z" fill="none" stroke-width="1"></path><path d="M2,24v-22h44v22z" fill="none" stroke-width="1"></path><path d="M2,24v-22h44v22z" fill="none" stroke-width="1"></path><path d="M24,2c12.15026,0 22,9.84974 22,22h-44c0,-12.15026 9.84974,-22 22,-22z" id="base 1 5 1" fill-opacity="0.1" fill="#000000" stroke-width="1"></path></g></svg>